<svg xmlns="http://www.w3.org/2000/svg" xmlns:xlink="http://www.w3.org/1999/xlink" xmlns:svgjs="http://svgjs.com/svgjs" width="512" height="512" x="0" y="0" viewBox="0 0 100 100" style="enable-background:new 0 0 512 512" xml:space="preserve" class=""><g transform="matrix(1,0,0,-1,0,99.98308944702148)"><g xmlns="http://www.w3.org/2000/svg"><g><path d="m83.689 45.48c-.235 0-.467-.11-.613-.317-.239-.338-.159-.806.179-1.045.757-.536 1.16-.855 1.17-.862.323-.259.795-.204 1.054.12.258.324.204.796-.12 1.054 0 0-.427.34-1.236.913-.133.092-.284.137-.434.137z" fill="#464646" data-original="#000000" class=""></path></g><g><path d="m83.069 45.16c-.229-.34-.149-.8.19-1.04.33-.24.8-.16 1.04.18.24.34.16.8-.18 1.04-.13.1-.28.14-.431.14-.238 0-.468-.11-.619-.32z" fill="#464646" data-original="#000000" class=""></path></g><g><path d="m45.7 58.25c-.4 0-.74-.33-.75-.73 0-.2.069-.39.21-.54.14-.14.33-.22.529-.23.92-.02 1.891-.06 2.86-.13.42-.03.77.29.8.7v.03c.01.4-.3.74-.7.76-.97.07-1.96.12-2.93.14zm-2.9 0h-.01c-1-.03-1.99-.08-2.94-.15-.399-.04-.71-.37-.7-.77 0-.01 0-.03 0-.04.04-.41.41-.71.811-.69.97.07 1.93.12 2.859.15.4.01.721.33.73.73v.03c-.01.41-.35.74-.75.74zm8.69-.4c-.381 0-.7-.29-.75-.67 0-.02 0-.05 0-.07-.011-.39.279-.71.659-.76.98-.11 1.94-.25 2.841-.4.43-.06.8.22.859.62.01.04.01.08.01.12.011.37-.26.68-.63.74-1.02.17-1.97.3-2.899.41-.03 0-.06.01-.09.01zm-14.47-.04c-.029 0-.069 0-.1-.01-.97-.12-1.95-.27-2.9-.44-.37-.06-.63-.39-.62-.75 0-.04 0-.08.011-.12.069-.4.46-.68.87-.61.93.17 1.88.31 2.829.43.381.05.671.38.66.77 0 .02-.01.05-.01.07-.05.38-.37.66-.74.66zm20.2-.9c-.36 0-.67-.25-.74-.59-.01-.06-.01-.11-.01-.16-.01-.35.25-.66.59-.73.91-.19 1.851-.41 2.8-.65.391-.1.811.15.91.54.021.06.021.13.021.19 0 .34-.23.64-.561.72-.899.23-1.87.46-2.859.67-.052.01-.101.01-.151.01zm-25.92-.11c-.05 0-.11-.01-.16-.02-.939-.21-1.89-.46-2.85-.73-.33-.09-.561-.4-.55-.74 0-.06.01-.12.029-.18.11-.39.53-.63.931-.52.909.25 1.84.49 2.77.7.34.08.58.37.58.72.01.06 0 .12-.02.19-.07.33-.381.58-.73.58zm31.55-1.32h-.01c-.33 0-.62-.21-.72-.53-.021-.07-.03-.15-.03-.22 0-.33.22-.62.53-.71.87-.26 1.739-.54 2.68-.86l.06-.02c.381-.13.82.08.95.46.03.09.05.17.04.26 0 .32-.21.6-.5.7-.899.31-1.84.61-2.79.89-.07.02-.14.03-.21.03zm-37.13-.25c-.08 0-.16-.02-.24-.04-.93-.32-1.859-.65-2.76-1-.29-.12-.479-.41-.479-.72 0-.09.02-.17.05-.26.149-.37.6-.57.979-.42.91.35 1.82.68 2.69.97.31.11.52.4.51.73 0 .07-.01.15-.04.22-.1.31-.39.52-.71.52zm42.61-1.63c-.311 0-.59-.19-.7-.48-.03-.08-.05-.16-.05-.25-.011-.32.189-.61.479-.72.891-.34 1.78-.71 2.66-1.09h.01c.36-.16.811.03.971.39.04.09.06.19.069.29 0 .31-.18.58-.46.7-.859.37-1.77.75-2.71 1.11-.089.04-.179.05-.269.05zm-48.02-.48c-.1 0-.2-.02-.3-.06-.88-.39-1.75-.81-2.6-1.23-.011 0-.03-.01-.061-.02l-.069-.04v-.01c-.211-.14-.341-.38-.341-.64 0-.11.03-.22.08-.32.181-.36.641-.52 1.011-.34.8.4 1.649.81 2.52 1.2l.07.03c.279.12.449.39.439.7 0 .1-.02.19-.06.29-.119.27-.39.44-.689.44zm53.35-1.82c-.29 0-.551-.17-.681-.43-.05-.1-.08-.21-.069-.33 0-.28.159-.54.42-.67.85-.4 1.71-.84 2.569-1.29.36-.19.83-.04 1.011.31.06.11.09.24.09.36 0 .28-.16.53-.4.66-.819.43-1.7.87-2.62 1.31-.1.05-.21.08-.32.08zm-58.54-.77c-.12 0-.25-.03-.36-.09-.01-.01-.03-.02-.04-.02-.34-.22-.45-.66-.26-1.01.18-.32.59-.47.939-.33.03.01.061.03.091.04.239.14.39.39.38.67 0 .12-.03.25-.09.36-.131.23-.381.38-.66.38zm63.67-1.94c-.26 0-.51-.14-.65-.37-.06-.11-.09-.23-.1-.36 0-.27.14-.53.38-.67.84-.48 1.67-.98 2.46-1.48.34-.22.82-.11 1.03.23.109.17.14.37.1.56-.04.2-.16.37-.33.47-.78.5-1.62 1.01-2.51 1.52-.12.07-.24.1-.38.1z" fill="#464646" data-original="#000000" class=""></path></g><g><path d="m15.11 50.524c-.123 0-.248-.03-.363-.094-.438-.244-.878-.494-1.317-.751-.357-.209-.478-.669-.269-1.026.209-.358.668-.477 1.026-.269.43.251.859.497 1.288.734.362.201.492.658.291 1.02-.136.247-.392.386-.656.386z" fill="#464646" data-original="#000000" class=""></path></g></g><g xmlns="http://www.w3.org/2000/svg"><path d="m83.832 51.289c-.069 0-.141-.01-.211-.03-.397-.116-.625-.533-.509-.93l1.854-6.338-6.381-.763c-.411-.049-.705-.422-.656-.833s.413-.708.834-.656l7.261.868c.219.026.415.147.537.332.121.184.156.412.094.624l-2.104 7.188c-.095.326-.394.538-.719.538z" fill="#464646" data-original="#000000" class=""></path></g></g></svg>